<svg xmlns="http://www.w3.org/2000/svg" width="56" height="56" fill="currentcolor"><path d="M39.54 6.644c3.287-1.628 4.93-2.442 6.04-1.703 1.11.74.953 2.541.637 6.146l-.081.932c-.09 1.024-.135 1.537.025 2 .16.465.508.829 1.202 1.556l.632.663c2.444 2.56 3.666 3.84 3.263 5.151-.403 1.312-2.164 1.786-5.684 2.735l-.911.246c-1.001.27-1.501.404-1.9.717-.399.314-.651.77-1.156 1.682l-.46.83c-1.777 3.21-2.665 4.815-4.024 4.886-1.36.072-2.29-1.437-4.15-4.455l-.481-.78c-.53-.858-.793-1.287-1.2-1.557-.407-.271-.91-.353-1.917-.517l-.916-.149c-3.541-.576-5.312-.864-5.75-2.132-.437-1.267.749-2.674 3.12-5.488l.613-.728c.674-.8 1.011-1.2 1.159-1.68.147-.48.089-.987-.028-2l-.107-.923c-.412-3.566-.618-5.349.47-6.204 1.09-.855 2.753-.215 6.078 1.063l.86.331c.946.363 1.419.545 1.917.519.498-.026.964-.258 1.899-.72l.85-.421ZM21.104 26.414C13.978 30.963 7.633 39.192 4.879 46.742c-.894 2.449 1.166 4.593 3.793 4.593h2.411c0-.819.192-1.836.476-2.903a36.762 36.762 0 0 1 1.236-3.722 60.124 60.124 0 0 1 4.323-8.858c1.78-2.988 3.897-5.9 6.218-8.087l.173-.162a11.113 11.113 0 0 1-.161-.05c-.663-.213-1.492-.553-2.244-1.139ZM28.047 28.507c-.744.455-1.516 1.056-2.31 1.805-2 1.884-3.925 4.498-5.612 7.331a56.63 56.63 0 0 0-4.066 8.328 33.339 33.339 0 0 0-1.118 3.359c-.26.978-.357 1.645-.358 2.005h6.61c.001-2.623.91-7.48 2.553-12.348 1.206-3.571 2.877-7.358 5.03-10.361l-.729-.119ZM31.03 31.531c-1.578 2.436-2.92 5.473-3.968 8.576-1.582 4.684-2.368 9.136-2.368 11.228H27.7c2.627 0 4.742-2.115 4.917-4.714.3-4.466.99-8.492 1.778-11.355-.78-.457-1.382-1.059-1.825-1.58-.511-.6-1.025-1.348-1.542-2.155Z"/></svg>
